Coordinates
version=1
nRows=32
nColumns=22
inDegrees=yes

Units are S.I. units (second, meters, Newtons, ...)
If the header above contains a line with 'inDegrees', this indicates whether rotational values are in degrees (yes) or radians (no).

endheader
time	pelvis_tilt	pelvis_list	pelvis_rotation	pelvis_tx	pelvis_ty	pelvis_tz	hip_flexion_r	hip_adduction_r	hip_rotation_r	knee_angle_r	ankle_angle_r	subtalar_angle_r	hip_flexion_l	hip_adduction_l	hip_rotation_l	knee_angle_l	ankle_angle_l	subtalar_angle_l	lumbar_extension	lumbar_bending	lumbar_rotation
      0.01000000	      0.17589075	     -3.96267073	      0.26047373	     -1.49592399	      1.01532582	     -0.59341866	     -0.39124971	      2.58246784	     -3.25795782	     -9.84667258	      8.48320457	      0.00993996	     -2.88167653	     -5.04838113	     -8.50940851	     -6.67274519	     10.49418979	     -1.07307208	     -4.78193647	     -0.10207784	     -0.06582556
      0.02000000	      0.17473521	     -3.95912937	      0.24684239	     -1.49596704	      1.01533369	     -0.59339052	     -0.38831669	      2.57765107	     -3.25934649	     -9.84299414	      8.48226498	      0.01199855	     -2.87797450	     -5.04328359	     -8.50399941	     -6.67524597	     10.49753037	     -1.07162434	     -4.79129741	     -0.09511364	     -0.06604195
      0.03000000	      0.18097654	     -3.94963446	      0.23028584	     -1.49604643	      1.01535239	     -0.59335533	     -0.38942106	      2.56653593	     -3.23393147	     -9.84543649	      8.47268006	      0.02703329	     -2.86158314	     -5.03407801	     -8.49114195	     -6.71765222	     10.51483545	     -1.06631702	     -4.81470732	     -0.09531300	     -0.05441051
      0.04000000	      0.18034933	     -3.94626498	      0.20626633	     -1.49612559	      1.01536376	     -0.59330005	     -0.38943386	      2.56329176	     -3.19300885	     -9.83368390	      8.46833459	      0.04605249	     -2.83740741	     -5.03227058	     -8.51089769	     -6.76027313	     10.53018886	     -1.06454093	     -4.83252356	     -0.08581257	     -0.05266384
      0.05000000	      0.17756385	     -3.94749265	      0.17429136	     -1.49619872	      1.01537372	     -0.59323808	     -0.38599484	      2.56478194	     -3.14276009	     -9.82485097	      8.46206845	      0.06489507	     -2.81045546	     -5.03452751	     -8.53729119	     -6.80715737	     10.54353969	     -1.06829768	     -4.84571141	     -0.06853538	     -0.04168207
      0.06000000	      0.17143380	     -3.94935693	      0.13893302	     -1.49626504	      1.01537870	     -0.59317483	     -0.38041262	      2.56651100	     -3.08282988	     -9.81500634	      8.45519717	      0.08269829	     -2.78039899	     -5.03704217	     -8.56997462	     -6.85409163	     10.55864697	     -1.07801064	     -4.85504080	     -0.04940622	     -0.03485739
      0.07000000	      0.15189067	     -3.95769560	      0.08973161	     -1.49631370	      1.01536506	     -0.59308909	     -0.36144385	      2.57567707	     -3.01087808	     -9.80242434	      8.44682371	      0.11070111	     -2.74246939	     -5.04614973	     -8.63026131	     -6.89376270	     10.58638946	     -1.10066485	     -4.84652535	     -0.02236564	     -0.01096232
      0.08000000	      0.15237601	     -3.95379934	      0.06583460	     -1.49636954	      1.01538092	     -0.59305820	     -0.36069709	      2.57004532	     -2.97111245	     -9.79981748	      8.44532890	      0.11679828	     -2.71830436	     -5.04076098	     -8.63055721	     -6.94094182	     10.58360181	     -1.10740791	     -4.86369158	     -0.00674020	     -0.02068580
      0.09000000	      0.14290497	     -3.95231596	      0.03693835	     -1.49642822	      1.01538263	     -0.59301265	     -0.35726383	      2.56867360	     -2.90709617	     -9.78032202	      8.44312533	      0.12837117	     -2.68071888	     -5.03933303	     -8.65878870	     -6.99241905	     10.59558586	     -1.12492489	     -4.87332907	      0.00975825	     -0.03326243
      0.10000000	      0.13430189	     -3.95248079	      0.00641708	     -1.49644302	      1.01538405	     -0.59298986	     -0.35373426	      2.56714874	     -2.84870831	     -9.76969133	      8.43972328	      0.13970872	     -2.64792786	     -5.03732003	     -8.68391513	     -7.04427898	     10.60629223	     -1.14323469	     -4.87370471	      0.03263440	     -0.04464045
      0.11000000	      0.10122588	     -3.96260398	     -0.03595373	     -1.49647237	      1.01534887	     -0.59294319	     -0.32540043	      2.57712373	     -2.78116941	     -9.75106243	      8.43344009	      0.16536205	     -2.58995608	     -5.04707810	     -8.73902891	     -7.09360199	     10.63661622	     -1.18618833	     -4.85281747	      0.06379164	     -0.03482161
      0.12000000	      0.09819594	     -3.95750608	     -0.05330059	     -1.49648627	      1.01535826	     -0.59295900	     -0.32484417	      2.56849983	     -2.74695095	     -9.74746581	      8.43516889	      0.16882362	     -2.56740452	     -5.03765736	     -8.73916072	     -7.13224726	     10.63189517	     -1.19340213	     -4.86519721	      0.08211208	     -0.06986386
      0.13000000	      0.08621062	     -3.95347915	     -0.06622132	     -1.49650987	      1.01535372	     -0.59297729	     -0.32430169	      2.56271494	     -2.70789322	     -9.72313916	      8.43858919	      0.17430053	     -2.52993100	     -5.03063919	     -8.75093541	     -7.17670194	     10.63614144	     -1.20751457	     -4.87326834	      0.09805990	     -0.10578717
      0.14000000	      0.07133673	     -3.95177973	     -0.07894915	     -1.49651680	      1.01534269	     -0.59301157	     -0.31870021	      2.55865033	     -2.67453719	     -9.70477543	      8.43837972	      0.18029897	     -2.49232435	     -5.02482078	     -8.76365817	     -7.21818320	     10.64482600	     -1.22504569	     -4.87471645	      0.11926305	     -0.14210486
      0.15000000	      0.06428399	     -3.94993458	     -0.09694920	     -1.49649850	      1.01534204	     -0.59306423	     -0.31629951	      2.55117933	     -2.67378453	     -9.69653754	      8.43914349	      0.18053639	     -2.48432410	     -5.01427435	     -8.76235951	     -7.22406966	     10.64526536	     -1.22668944	     -4.88448544	      0.13932822	     -0.15070262
      0.16000000	      0.01728584	     -3.95987178	     -0.09566448	     -1.49651556	      1.01527742	     -0.59312958	     -0.27779756	      2.55993359	     -2.64250196	     -9.67518272	      8.42890491	      0.19310873	     -2.39348384	     -5.02414668	     -8.77754991	     -7.29748274	     10.67646095	     -1.28721417	     -4.85059709	      0.17242366	     -0.21245659
      0.17000000	      0.00991731	     -3.95477350	     -0.10058903	     -1.49649568	      1.01527249	     -0.59322007	     -0.27779025	      2.54925512	     -2.62614383	     -9.66535752	      8.43264924	      0.19221065	     -2.37829830	     -5.01080864	     -8.78026389	     -7.31286284	     10.67006060	     -1.29237557	     -4.86109735	      0.19014988	     -0.24983824
      0.18000000	     -0.00011942	     -3.95139083	     -0.10291528	     -1.49646962	      1.01526205	     -0.59332039	     -0.27731812	      2.54019918	     -2.61906104	     -9.64996797	      8.43310192	      0.19120468	     -2.36256807	     -4.99907430	     -8.78283455	     -7.32460798	     10.66874149	     -1.29943638	     -4.86970256	      0.20694209	     -0.28166161
      0.19000000	     -0.01143937	     -3.94968303	     -0.10098727	     -1.49644314	      1.01524645	     -0.59343043	     -0.27457139	      2.53307903	     -2.61604434	     -9.63598396	      8.43029841	      0.18977288	     -2.34742304	     -4.98910571	     -8.78520391	     -7.33106746	     10.66923287	     -1.30918779	     -4.87828443	      0.22292385	     -0.31625287
      0.20000000	     -0.02017363	     -3.94990258	     -0.10561162	     -1.49641464	      1.01523297	     -0.59353728	     -0.27031710	      2.52708693	     -2.61724462	     -9.62919054	      8.43038979	      0.18937157	     -2.34198248	     -4.98045321	     -8.78558239	     -7.32783826	     10.66959987	     -1.31019436	     -4.89194419	      0.23686837	     -0.32015500
      0.21000000	     -0.03034754	     -3.94947816	     -0.10584326	     -1.49635366	      1.01521498	     -0.59367685	     -0.26719960	      2.51810989	     -2.61736921	     -9.62204967	      8.42545260	      0.18820809	     -2.33910982	     -4.96969521	     -8.79204040	     -7.31978193	     10.67093156	     -1.31858455	     -4.89684999	      0.25559424	     -0.35432794
      0.22000000	     -0.03959145	     -3.95088993	     -0.10700383	     -1.49631426	      1.01519787	     -0.59379884	     -0.26241578	      2.51301088	     -2.61862343	     -9.61611400	      8.42525430	      0.18791950	     -2.33502957	     -4.96224724	     -8.79338229	     -7.31391411	     10.67145658	     -1.31989371	     -4.91093802	      0.26634045	     -0.35702727
      0.23000000	     -0.04911681	     -3.95171334	     -0.10952317	     -1.49623118	      1.01517658	     -0.59395112	     -0.25745740	      2.50400384	     -2.62237402	     -9.61593355	      8.42029779	      0.18797322	     -2.34170007	     -4.95125515	     -8.80128119	     -7.29232571	     10.67418075	     -1.32873530	     -4.91555998	      0.28316575	     -0.38034838
      0.24000000	     -0.05809648	     -3.95411674	     -0.11018884	     -1.49617264	      1.01515663	     -0.59409390	     -0.25272407	      2.49787144	     -2.62318518	     -9.61238381	      8.42024869	      0.18803442	     -2.34024247	     -4.94419862	     -8.80317824	     -7.28463950	     10.67491309	     -1.33040754	     -4.92852217	      0.29285093	     -0.38161195
      0.25000000	     -0.06582257	     -3.95475448	     -0.11902714	     -1.49606284	      1.01513742	     -0.59424887	     -0.24390951	      2.48709521	     -2.62394515	     -9.62562157	      8.41886688	      0.19142954	     -2.35907789	     -4.93147904	     -8.81397569	     -7.24910198	     10.68007857	     -1.34208317	     -4.93254974	      0.30504750	     -0.39611337
      0.26000000	     -0.07103997	     -3.95288287	     -0.13175571	     -1.49595667	      1.01512150	     -0.59440706	     -0.23518346	      2.47273843	     -2.61811560	     -9.64336772	      8.42662279	      0.19959694	     -2.37877869	     -4.91530947	     -8.82231722	     -7.21800045	     10.68155774	     -1.35821382	     -4.94183450	      0.31107687	     -0.39246056
      0.27000000	     -0.07401212	     -3.93909773	     -0.15561094	     -1.49584862	      1.01510816	     -0.59454890	     -0.22690110	      2.44545336	     -2.59080209	     -9.66618079	      8.46351267	      0.23327618	     -2.40026805	     -4.88589830	     -8.84333372	     -7.19096820	     10.66914846	     -1.39720849	     -4.95584034	      0.29733615	     -0.36207028
      0.28000000	     -0.08294734	     -3.94019444	     -0.16242402	     -1.49572891	      1.01509027	     -0.59472999	     -0.21511735	      2.43271541	     -2.57891402	     -9.68489192	      8.46817041	      0.24314791	     -2.40769669	     -4.87403422	     -8.85206093	     -7.17529016	     10.67485781	     -1.40368944	     -4.96083320	      0.30528930	     -0.37353575
      0.29000000	     -0.09126914	     -3.94369753	     -0.16072292	     -1.49559263	      1.01507803	     -0.59494156	     -0.21234952	      2.42136867	     -2.57438054	     -9.69048435	      8.47114063	      0.24557719	     -2.40855637	     -4.86462379	     -8.85407266	     -7.17237552	     10.67646491	     -1.40484909	     -4.96557968	      0.31541228	     -0.37125100
      0.30000000	     -0.12888232	     -3.90875432	     -0.20256960	     -1.49548079	      1.01501401	     -0.59510135	     -0.14008569	      2.36508120	     -2.52518660	     -9.76886366	      8.56414641	      0.32081078	     -2.39214995	     -4.81014456	     -8.87892762	     -7.15297334	     10.69031156	     -1.43091813	     -4.94026567	      0.27453684	     -0.33166933
      0.31000000	     -0.13753624	     -3.91333300	     -0.19571948	     -1.49530385	      1.01501015	     -0.59535396	     -0.13888057	      2.35140392	     -2.51908732	     -9.77765314	      8.56554116	      0.32422034	     -2.39215535	     -4.80097936	     -8.88139782	     -7.15353897	     10.69059585	     -1.43154030	     -4.94088088	      0.28594100	     -0.33298219
      0.32000000	     -0.21620847	     -3.86101025	     -0.21441883	     -1.49521101	      1.01489460	     -0.59559118	     -0.01499222	      2.27196135	     -2.48721443	     -9.87371606	      8.68201507	      0.44883196	     -2.30355836	     -4.72893310	     -8.88362315	     -7.17663811	     10.70301104	     -1.45236290	     -4.87438605	      0.22644039	     -0.32875972
